HIERARCHY
ROOT Hips
{
    OFFSET 0.000000 0.000000 0.000000
    CHANNELS 6 Xposition Yposition Zposition Zrotation Xrotation Yrotation
    JOINT Spine
    {
        OFFSET -0.000000 8.349382 0.000000
        CHANNELS 3 Zrotation Xrotation Yrotation
        JOINT Spine1
        {
            OFFSET -0.000000 23.269058 0.000000
            CHANNELS 3 Zrotation Xrotation Yrotation
            JOINT Neck
            {
                OFFSET -0.000000 23.173496 2.106681
                CHANNELS 3 Zrotation Xrotation Yrotation
                JOINT Head
                {
                    OFFSET -0.000000 14.255042 -2.036435
                    CHANNELS 3 Zrotation Xrotation Yrotation
                    End Site
                    {
                        OFFSET -0.000000 25.455433 0.000000
                    }
                }
            }
            JOINT LeftShoulder
            {
                OFFSET 3.917082 21.531742 0.000256
                CHANNELS 3 Zrotation Xrotation Yrotation
                JOINT LeftArm
                {
                    OFFSET 10.728225 0.000000 0.000000
                    CHANNELS 3 Zrotation Xrotation Yrotation
                    JOINT LeftForeArm
                    {
                        OFFSET 30.046112 0.000000 0.000000
                        CHANNELS 3 Zrotation Xrotation Yrotation
                        JOINT LeftHand
                        {
                            OFFSET 29.023712 0.000000 0.000000
                            CHANNELS 3 Zrotation Xrotation Yrotation
                            End Site
                            {
                                OFFSET 15.273261 0.000000 0.000000
                            }
                        }
                    }
                }
            }
            JOINT RightShoulder
            {
                OFFSET -3.920664 21.531742 0.000256
                CHANNELS 3 Zrotation Xrotation Yrotation
                JOINT RightArm
                {
                    OFFSET -10.728225 0.000000 0.000000
                    CHANNELS 3 Zrotation Xrotation Yrotation
                    JOINT RightForeArm
                    {
                        OFFSET -30.046112 0.000000 0.000000
                        CHANNELS 3 Zrotation Xrotation Yrotation
                        JOINT RightHand
                        {
                            OFFSET -29.023712 0.000000 0.000000
                            CHANNELS 3 Zrotation Xrotation Yrotation
                            End Site
                            {
                                OFFSET -15.273261 0.000000 0.000000
                            }
                        }
                    }
                }
            }
        }
    }
    JOINT LeftUpLeg
    {
        OFFSET 10.182174 0.000000 0.000000
        CHANNELS 3 Zrotation Xrotation Yrotation
        JOINT LeftLeg
        {
            OFFSET -0.000000 -49.689274 0.000000
            CHANNELS 3 Zrotation Xrotation Yrotation
            JOINT LeftFoot
            {
                OFFSET -0.000000 -39.155319 0.000000
                CHANNELS 3 Zrotation Xrotation Yrotation
                JOINT LeftToeBase
                {
                    OFFSET -0.000000 -6.618412 15.273261
                    CHANNELS 3 Zrotation Xrotation Yrotation
                    End Site
                    {
                        OFFSET -0.000000 0.000000 4.072869
                    }
                }
            }
        }
    }
    JOINT RightUpLeg
    {
        OFFSET -10.182174 0.000000 0.000000
        CHANNELS 3 Zrotation Xrotation Yrotation
        JOINT RightLeg
        {
            OFFSET -0.000000 -49.689274 0.000000
            CHANNELS 3 Zrotation Xrotation Yrotation
            JOINT RightFoot
            {
                OFFSET -0.000000 -39.155319 0.000000
                CHANNELS 3 Zrotation Xrotation Yrotation
                JOINT RightToeBase
                {
                    OFFSET -0.000000 -6.618412 15.273261
                    CHANNELS 3 Zrotation Xrotation Yrotation
                    End Site
                    {
                        OFFSET -0.000000 0.000000 4.072869
                    }
                }
            }
        }
    }
}
MOTION
Frames:    8
Frame Time:    0.008333
44.871010    106.198433    24.624756    9.411621    2.309903    94.716492    1.268272    -3.769270    -1.750906    2.013920    8.830315    -1.948141    -2.132966    4.058167    2.479019    -2.258068    -11.922014    2.268374    11.343146    5.805071    -11.467326    -28.998789    10.037500    24.517195    9.672181    -24.195044    -2.187373    -32.021095    -21.772758    -8.508702    -1.084790    22.469358    -30.479658    54.287048    50.814854    -14.677828    13.089273    0.940102    -7.753999    25.170404    2.883936    4.718220    -2.864453    -7.073123    -0.394808    -4.278475    12.699997    -6.819599    -10.670836    10.765728    8.645755    0.000000    0.000000    0.000000    -3.552932    -9.899454    -8.168199    2.701925    20.812954    -2.017868    14.397440    9.423233    -0.172257    0.000000    0.000000    0.000000    
46.071815    106.033585    24.630398    9.322298    2.410431    94.598045    0.740425    -4.347172    -1.560328    2.554054    8.966296    -1.788711    -1.991263    3.188846    2.400675    -2.628046    -10.639582    2.124823    11.558006    5.896637    -11.500435    -28.400522    10.509645    23.396025    9.709222    -24.020271    -3.200762    -31.424541    -21.653656    -8.147766    -1.426192    21.580137    -29.675259    53.600510    50.246193    -14.631831    12.483776    0.216259    -7.647971    24.890234    2.228202    5.318616    -2.927758    -7.094229    -1.090794    -4.323749    10.851015    -6.242210    -10.674807    11.482532    9.485913    0.000000    0.000000    0.000000    -3.770645    -9.758086    -8.361790    2.688468    17.973356    -2.199387    14.287413    9.703070    0.856617    0.000000    0.000000    0.000000    
47.283371    105.812431    24.622976    9.250416    2.555095    94.570160    0.239879    -5.026253    -1.408603    3.075387    9.175942    -1.665951    -2.001715    2.741129    2.272472    -2.990727    -10.026258    1.931755    11.727736    5.958221    -11.601566    -27.978764    11.084810    22.241051    9.830469    -23.852667    -4.059375    -31.351620    -21.520178    -7.752396    -1.679838    20.819952    -29.468580    52.529751    49.802212    -13.963678    11.697261    -0.250800    -7.433516    24.264864    1.740963    5.714106    -3.040568    -7.157854    -2.034123    -4.377006    9.470272    -6.011603    -10.583207    11.842337    10.811099    0.000000    0.000000    0.000000    -4.034255    -9.542424    -8.064813    2.766558    15.416805    -2.327511    13.734283    9.620200    1.185019    0.000000    0.000000    0.000000    
48.515713    105.519661    24.622799    9.246501    2.651710    94.541161    -0.377282    -5.704276    -1.173163    3.930422    9.430201    -1.478711    -2.073384    2.229261    2.044098    -3.394863    -9.258739    1.642470    11.834959    5.685829    -12.081549    -27.889685    11.572632    21.441086    10.009644    -23.407730    -5.126142    -30.065704    -21.278486    -6.891107    -2.153985    20.079954    -29.338785    51.151833    48.716984    -12.915842    11.376936    -0.156604    -7.297819    23.587017    1.896623    6.341523    -3.069853    -7.216570    -2.940024    -4.413858    8.422107    -6.074380    -10.827583    12.065551    12.415094    0.000000    0.000000    0.000000    -4.204721    -9.310684    -7.645514    2.718110    13.174838    -2.161652    13.697268    9.397758    0.614624    0.000000    0.000000    0.000000    
49.801682    105.141235    24.618082    9.425889    2.759588    94.595802    -0.823772    -6.010713    -1.012908    4.512057    9.092947    -1.328635    -2.172673    2.232424    1.813922    -3.643418    -8.538190    1.382818    11.748970    5.506502    -12.929624    -27.324604    11.499186    20.983444    10.042289    -22.520470    -6.017502    -30.286930    -20.355150    -6.633214    -2.565678    19.452106    -28.935200    50.320023    47.382252    -12.524178    10.922989    0.187567    -6.943336    22.237108    2.154989    6.623173    -3.082000    -7.127468    -3.847319    -4.565094    7.721632    -5.847829    -10.975541    12.235209    13.784101    0.000000    0.000000    0.000000    -4.416590    -8.821924    -6.501584    2.844820    11.166986    -2.814890    13.434134    8.708625    -0.220977    0.000000    0.000000    0.000000    
51.109177    104.670509    24.596346    9.756538    2.865201    94.643463    -1.321902    -6.204134    -0.798868    5.261314    8.763715    -1.130628    -2.394236    2.281143    1.519154    -3.746506    -7.785489    1.105165    11.643097    5.457224    -13.961232    -26.625259    10.519255    20.615931    9.820737    -21.399481    -7.475881    -30.045046    -19.279919    -6.021420    -2.897808    18.995260    -28.776060    50.013409    46.736340    -12.371550    10.065008    0.247128    -6.306657    20.990761    2.184999    7.451322    -3.100044    -6.953747    -4.342651    -4.642393    7.427953    -5.860650    -10.880498    12.152249    14.761208    0.000000    0.000000    0.000000    -4.675285    -8.286383    -5.475536    2.991030    9.627135    -2.916703    14.023915    7.713853    -2.096215    0.000000    0.000000    0.000000    
52.438915    104.109192    24.564972    10.230493    2.977495    94.734337    -1.598174    -6.332954    -0.629035    5.477975    8.587111    -0.952239    -2.070605    2.150759    1.325302    -4.102939    -6.940979    0.819055    11.970222    5.463541    -14.712528    -26.097885    9.268481    19.998550    9.731655    -20.335672    -8.925474    -29.625996    -18.219049    -5.596260    -2.930108    18.468033    -28.389187    49.865566    46.102531    -12.294454    9.510985    0.337773    -5.614247    19.322721    2.176510    8.044546    -3.119692    -6.653132    -4.618519    -4.731084    7.401753    -5.779881    -10.906762    11.900200    15.318520    0.000000    0.000000    0.000000    -4.965481    -7.659115    -4.504302    3.158023    8.517231    -3.260091    13.761482    6.265094    -3.685032    0.000000    0.000000    0.000000    
53.810574    103.457413    24.547100    10.929453    3.071227    94.852676    -1.603138    -6.398870    -0.478681    5.223232    8.902231    -0.795978    -1.399241    1.501010    1.166892    -4.627268    -6.110138    0.502001    12.767344    4.959167    -14.965096    -25.927839    8.128307    19.441339    9.460836    -19.520525    -11.002226    -28.719332    -17.420641    -5.077869    -2.784223    18.069201    -28.543358    49.824554    46.421318    -11.613338    8.916167    -0.069889    -4.639598    17.453575    1.645069    8.796309    -3.089473    -6.133072    -4.631205    -4.785755    7.582600    -5.700546    -10.929214    11.412853    15.483559    0.000000    0.000000    0.000000    -5.197455    -6.797351    -4.158867    3.201112    7.697755    -3.457514    13.284152    4.903813    -5.067840    0.000000    0.000000    0.000000    
